<svg xmlns="http://www.w3.org/2000/svg" width="337" height="62" class="railroad-diagram" version="1.1" viewBox="0 0 337 62"><defs><style type="text/css">svg.railroad-diagram{background-color:#f5f2f0}svg.railroad-diagram path,svg.railroad-diagram rect{stroke-width:3;stroke:#000;fill:none}svg.railroad-diagram rect{fill:#cfc}svg.railroad-diagram text{font:700 14px monospace;text-anchor:middle;cursor:pointer}</style></defs><g><path d="M 20 21 v 20 m 10 -20 v 20 m -10 -10 h 20.5" transform="translate(.5 .5)"/><g><path d="M40 31h0" transform="translate(.5 .5)"/><path d="M296 31h0" transform="translate(.5 .5)"/><path d="M40 31h10" transform="translate(.5 .5)"/><g transform="translate(.5 .5)"><path d="M50 31h0"/><path d="M78 31h0"/><rect width="28" height="22" x="50" y="20" rx="10" ry="10"/><text x="64" y="35">(</text></g><path d="M78 31h10" transform="translate(.5 .5)"/><path d="M88 31h10" transform="translate(.5 .5)"/><g transform="translate(.5 .5)"><path d="M98 31h0"/><path d="M238 31h0"/><rect width="140" height="22" x="98" y="20"/><text x="168" y="35">Unparenthesized</text></g><path d="M238 31h10" transform="translate(.5 .5)"/><path d="M248 31h10" transform="translate(.5 .5)"/><g transform="translate(.5 .5)"><path d="M258 31h0"/><path d="M286 31h0"/><rect width="28" height="22" x="258" y="20" rx="10" ry="10"/><text x="272" y="35">)</text></g><path d="M286 31h10" transform="translate(.5 .5)"/></g><path d="M 296 31 h 20 m -10 -10 v 20 m 10 -20 v 20" transform="translate(.5 .5)"/></g></svg>