<svg xmlns="http://www.w3.org/2000/svg" width="181" height="71" class="railroad-diagram" version="1.1" viewBox="0 0 181 71"><defs><style type="text/css">svg.railroad-diagram{background-color:#f5f2f0}svg.railroad-diagram path,svg.railroad-diagram rect{stroke-width:3;stroke:#000;fill:none}svg.railroad-diagram rect{fill:#cfc}svg.railroad-diagram text{font:700 14px monospace;text-anchor:middle;cursor:pointer}</style></defs><g><path d="M 20 21 v 20 m 10 -20 v 20 m -10 -10 h 20.5" transform="translate(.5 .5)"/><path d="M40 31h10" transform="translate(.5 .5)"/><g><path d="M50 31h0" transform="translate(.5 .5)"/><path d="M130 31h0" transform="translate(.5 .5)"/><path d="M50 31h10" transform="translate(.5 .5)"/><g transform="translate(.5 .5)"><path d="M60 31h0"/><path d="M120 31h0"/><rect width="60" height="22" x="60" y="20" rx="10" ry="10"/><text x="90" y="35">[0-9]</text></g><path d="M120 31h10" transform="translate(.5 .5)"/><path d="M60 31a10 10 0 0 0 -10 10v0a10 10 0 0 0 10 10" transform="translate(.5 .5)"/><g><path d="M60 51h60" transform="translate(.5 .5)"/></g><path d="M120 51a10 10 0 0 0 10 -10v0a10 10 0 0 0 -10 -10" transform="translate(.5 .5)"/></g><path d="M130 31h10" transform="translate(.5 .5)"/><path d="M 140 31 h 20 m -10 -10 v 20 m 10 -20 v 20" transform="translate(.5 .5)"/></g></svg>