<svg xmlns="http://www.w3.org/2000/svg" width="241" height="71" class="railroad-diagram" version="1.1" viewBox="0 0 241 71"><defs><style type="text/css">svg.railroad-diagram{background-color:#f5f2f0}svg.railroad-diagram path,svg.railroad-diagram rect{stroke-width:3;stroke:#000;fill:none}svg.railroad-diagram rect{fill:#cfc}svg.railroad-diagram text{font:700 14px monospace;text-anchor:middle;cursor:pointer}</style></defs><g><path d="M 20 21 v 20 m 10 -20 v 20 m -10 -10 h 20.5" transform="translate(.5 .5)"/><path d="M40 31h10" transform="translate(.5 .5)"/><g><path d="M50 31h0" transform="translate(.5 .5)"/><path d="M190 31h0" transform="translate(.5 .5)"/><path d="M50 31h10" transform="translate(.5 .5)"/><g><path d="M60 31h0" transform="translate(.5 .5)"/><path d="M180 31h0" transform="translate(.5 .5)"/><path d="M60 31h10" transform="translate(.5 .5)"/><g transform="translate(.5 .5)"><path d="M70 31h0"/><path d="M98 31h0"/><rect width="28" height="22" x="70" y="20" rx="10" ry="10"/><text x="84" y="35">/</text></g><path d="M98 31h10" transform="translate(.5 .5)"/><path d="M108 31h10" transform="translate(.5 .5)"/><g transform="translate(.5 .5)"><path d="M118 31h0"/><path d="M170 31h0"/><rect width="52" height="22" x="118" y="20"/><text x="144" y="35">View</text></g><path d="M170 31h10" transform="translate(.5 .5)"/></g><path d="M180 31h10" transform="translate(.5 .5)"/><path d="M60 31a10 10 0 0 0 -10 10v0a10 10 0 0 0 10 10" transform="translate(.5 .5)"/><g><path d="M60 51h120" transform="translate(.5 .5)"/></g><path d="M180 51a10 10 0 0 0 10 -10v0a10 10 0 0 0 -10 -10" transform="translate(.5 .5)"/></g><path d="M190 31h10" transform="translate(.5 .5)"/><path d="M 200 31 h 20 m -10 -10 v 20 m 10 -20 v 20" transform="translate(.5 .5)"/></g></svg>