<svg xmlns="http://www.w3.org/2000/svg" xmlns:svg="http://www.w3.org/2000/svg" id="svg10" width="1957.333" height="688" version="1.1" viewBox="0 0 1957.333 688" xml:space="preserve"><metadata id="metadata16"/><defs id="defs14"><linearGradient id="linearGradient36" x1="0" x2="1" y1="0" y2="0" gradientTransform="matrix(322.89966,0,0,-322.89966,85,258)" gradientUnits="userSpaceOnUse" spreadMethod="pad"><stop style="stop-opacity:1;stop-color:#01a0c6" id="stop32" offset="0"/><stop style="stop-opacity:1;stop-color:#2e58a6" id="stop34" offset="1"/></linearGradient><clipPath id="clipPath46" clipPathUnits="userSpaceOnUse"><path id="path44" d="M 0,516 H 1468 V 0 H 0 Z"/></clipPath></defs><g id="g18" transform="matrix(1.3333333,0,0,-1.3333333,0,688)"><g id="g20"><g id="g22"><g id="g28"><g id="g30"><path style="fill:url(#linearGradient36);stroke:none" id="path38" d="m 85,257.995 c 0,-89.02 72.424,-161.44 161.455,-161.44 v 0 c 89.02,0 161.445,72.42 161.445,161.44 v 0 c 0,89.031 -72.425,161.45 -161.445,161.45 v 0 C 157.424,419.445 85,347.026 85,257.995"/></g></g></g></g><g id="g40"><g id="g42" clip-path="url(#clipPath46)"><g id="g48" transform="translate(245.231,392.1182)"><path style="fill:#fff;fill-opacity:1;fill-rule:nonzero;stroke:none" id="path50" d="m 0,0 -0.008,-24.111 c 27.284,-0.385 54.465,-10.902 75.233,-31.682 21.56,-21.549 32.081,-49.984 31.673,-78.299 l 24.116,0.008 c 0.408,34.485 -12.465,69.087 -38.721,95.351 C 66.813,-13.254 33.454,-0.388 0,0"/></g><g id="g52" transform="translate(469.1299,279.4629)"><path style="fill:#2e58a6;fill-opacity:1;fill-rule:nonzero;stroke:none" id="path54" d="m 0,0 h 80.716 c 0.151,0 0.228,-0.076 0.228,-0.228 v -29.455 c 0,-0.154 -0.077,-0.228 -0.228,-0.228 H 30.598 v -73.296 c 0,-0.152 -0.078,-0.228 -0.23,-0.228 H 0 c -0.153,0 -0.229,0.076 -0.229,0.228 V -0.228 C -0.229,-0.076 -0.153,0 0,0 m 0,59.938 h 80.716 c 0.151,0 0.228,-0.078 0.228,-0.229 V 29.798 c 0,-0.153 -0.077,-0.229 -0.228,-0.229 L 0,29.569 c -0.153,0 -0.229,0.076 -0.229,0.229 v 29.911 c 0,0.151 0.076,0.229 0.229,0.229"/></g><g id="g56" transform="translate(575.457,205.7119)"><path style="fill:#2e58a6;fill-opacity:1;fill-rule:nonzero;stroke:none" id="path58" d="m 0,0 h 76.264 c 0.075,0 0.114,-0.077 0.114,-0.229 v -29.227 c 0,-0.152 -0.039,-0.228 -0.114,-0.228 H 0 c -0.152,0 -0.228,0.076 -0.228,0.228 V -0.229 C -0.228,-0.077 -0.152,0 0,0 m 0,134.146 h 30.711 c 0.151,0 0.229,-0.078 0.229,-0.229 V 34.82 c 0,-0.154 -0.078,-0.227 -0.229,-0.227 L 0,34.593 c -0.152,0 -0.228,0.073 -0.228,0.227 v 99.097 c 0,0.151 0.076,0.229 0.228,0.229"/></g><g id="g60" transform="translate(684.166,279.8057)"><path style="fill:#2e58a6;fill-opacity:1;fill-rule:nonzero;stroke:none" id="path62" d="m 0,0 h 89.049 c 0.152,0 0.229,-0.076 0.229,-0.228 v -29.57 c 0,-0.152 -0.077,-0.227 -0.229,-0.227 H 30.825 v -43.041 h 58.224 c 0.152,-0.077 0.229,-0.155 0.229,-0.229 v -30.255 c 0,-0.152 -0.077,-0.227 -0.229,-0.227 H 0 c -0.153,0 -0.229,0.075 -0.229,0.227 V -0.228 C -0.229,-0.076 -0.153,0 0,0 m 0,60.166 h 89.049 c 0.152,0 0.229,-0.078 0.229,-0.229 V 29.911 c 0,-0.152 -0.077,-0.227 -0.229,-0.227 L 0,29.684 c -0.153,0 -0.229,0.075 -0.229,0.227 v 30.026 c 0,0.151 0.076,0.229 0.229,0.229"/></g><g id="g64" transform="translate(909.2393,339.6289)"><path style="fill:#2e58a6;fill-opacity:1;fill-rule:nonzero;stroke:none" id="path66" d="m 0,0 h 34.593 c 0.151,0 0.227,-0.077 0.227,-0.229 -0.457,-0.61 -5.633,-8.448 -15.525,-23.518 l -0.23,-0.113 h -34.821 v 0.113 C -7.46,-10.96 -2.208,-3.045 0,0 m -103.891,0 h 34.821 c 0.38,-0.382 9.55,-14.348 27.513,-41.899 3.5,-5.33 5.823,-8.83 6.965,-10.503 H 0.342 v -0.116 l -17.467,-26.713 55.143,-84.142 v -0.228 H 3.082 c -24.964,37.828 -37.522,56.969 -37.674,57.426 h -0.229 c -0.99,-1.598 -13.471,-20.741 -37.447,-57.426 h -34.934 c -0.153,0 -0.229,0.076 -0.229,0.228 1.216,1.674 19.637,29.722 55.257,84.142 -33.262,50.764 -50.501,77.176 -51.717,79.231"/></g><g id="g68" transform="translate(1158.165,339.9717)"><path style="fill:#2e58a6;fill-opacity:1;fill-rule:nonzero;stroke:none" id="path70" d="m 0,0 h 31.623 c 0.151,0 0.23,-0.078 0.23,-0.229 -29.532,-81.972 -44.602,-123.795 -45.211,-125.468 -8.829,-24.585 -13.434,-37.333 -13.814,-38.246 h -29.912 c -0.228,0 -1.979,4.87 -5.251,14.613 -21.007,58.984 -31.701,89.125 -32.08,90.42 h 31.966 c 0.227,-0.305 2.245,-5.976 6.051,-17.011 l 14.384,-40.301 h 0.115 c 1.75,4.87 15.601,43.458 41.556,115.765 C -0.343,-0.154 -0.229,0 0,0 m -115.08,0 h 31.738 c 0.152,-0.078 1.408,-3.465 3.768,-10.162 l 7.079,-20.206 -0.23,-0.114 h -31.623 c -0.228,0 -0.876,1.711 -1.94,5.136 l -9.02,25.232 z"/></g><g id="g72" transform="translate(1362.7988,217.0205)"><path style="fill:#2e58a6;fill-opacity:1;fill-rule:nonzero;stroke:none" id="path74" d="m 0,0 c -0.193,-1.086 -0.537,-2.225 -1.068,-3.432 -3.654,-6.241 -9.247,-9.362 -16.783,-9.362 -9.667,0 -18.229,6.851 -25.687,20.551 -0.382,-0.076 -8.678,-5.063 -24.889,-14.956 10.96,-22.53 27.552,-33.793 49.777,-33.793 10.275,0 19.217,2.17 26.83,6.508 13.14,8.311 20.145,19.807 21.021,34.484 z"/></g><g id="g76" transform="translate(1333.418,252.5195)"><path style="fill:#2e58a6;fill-opacity:1;fill-rule:nonzero;stroke:none" id="path78" d="m 0,0 c 5.676,-4.601 10.119,-8.283 13.342,-11.059 h 39.915 c -1.418,2.584 -3.105,5.093 -5.08,7.52 -2.665,3.5 -7.04,7.953 -13.128,13.357 -12.485,10.276 -22.873,19.295 -31.168,27.058 -4.338,3.805 -6.508,7.572 -6.508,11.303 v 0.456 c 0,1.141 0.23,2.206 0.685,3.197 2.512,4.489 6.659,6.735 12.445,6.735 6.24,0 12.481,-3.349 18.723,-10.046 l 4.795,-5.937 c 14.537,12.787 21.842,19.218 21.92,19.295 -2.284,2.74 -5.137,5.783 -8.562,9.133 -10.886,10.655 -23.025,15.983 -36.42,15.983 -8.981,0 -16.973,-2.209 -23.975,-6.622 -12.483,-8.524 -18.722,-19.257 -18.722,-32.194 v -1.028 c 0,-10.351 4.946,-20.741 14.841,-31.168 C -10.124,9.134 -4.492,3.805 0,0"/></g><path style="fill:#2e58a6;fill-opacity:1;fill-rule:nonzero;stroke:none" id="path80" d="m 980.367,176.028 h 28.896 v 163.943 h -28.896 z"/><path style="fill:#2e58a6;fill-opacity:1;fill-rule:nonzero;stroke:none" id="path82" d="m 1224.773,176.028 h 28.896 v 163.943 h -28.896 z"/></g></g></g></svg>