<svg xmlns="http://www.w3.org/2000/svg" xmlns:svg="http://www.w3.org/2000/svg" id="svg37" width="1381.333" height="1029.333" version="1.1" viewBox="0 0 1381.333 1029.333" xml:space="preserve"><metadata id="metadata43"/><defs id="defs41"><linearGradient id="linearGradient63" x1="0" x2="1" y1="0" y2="0" gradientTransform="matrix(322.89966,0,0,-322.89966,356.55017,491.88177)" gradientUnits="userSpaceOnUse" spreadMethod="pad"><stop style="stop-opacity:1;stop-color:#01a0c6" id="stop59" offset="0"/><stop style="stop-opacity:1;stop-color:#2e58a6" id="stop61" offset="1"/></linearGradient><clipPath id="clipPath73" clipPathUnits="userSpaceOnUse"><path id="path71" d="M 0,772 H 1036 V 0 H 0 Z"/></clipPath></defs><g id="g45" transform="matrix(1.3333333,0,0,-1.3333333,0,1029.3333)"><g id="g47"><g id="g49"><g id="g55"><g id="g57"><path style="fill:url(#linearGradient63);stroke:none" id="path65" d="m 356.549,491.877 c 0,-89.021 72.425,-161.44 161.456,-161.44 v 0 c 89.021,0 161.446,72.419 161.446,161.44 v 0 c 0,89.03 -72.425,161.45 -161.446,161.45 v 0 c -89.031,0 -161.456,-72.42 -161.456,-161.45"/></g></g></g></g><g id="g67"><g id="g69" clip-path="url(#clipPath73)"><g id="g75" transform="translate(516.7812,626)"><path style="fill:#fff;fill-opacity:1;fill-rule:nonzero;stroke:none" id="path77" d="m 0,0 -0.008,-24.111 c 27.283,-0.385 54.465,-10.902 75.233,-31.682 21.56,-21.549 32.082,-49.984 31.673,-78.299 l 24.117,0.008 c 0.407,34.485 -12.466,69.086 -38.722,95.351 C 66.813,-13.254 33.453,-0.388 0,0"/></g><g id="g79" transform="translate(190.5117,223.1006)"><path style="fill:#2e58a6;fill-opacity:1;fill-rule:nonzero;stroke:none" id="path81" d="m 0,0 h 57.3 c 0.107,0 0.162,-0.054 0.162,-0.162 v -20.909 c 0,-0.11 -0.055,-0.162 -0.162,-0.162 H 21.721 v -52.033 c 0,-0.108 -0.055,-0.162 -0.162,-0.162 H 0 c -0.108,0 -0.161,0.054 -0.161,0.162 V -0.162 C -0.161,-0.054 -0.108,0 0,0 m 0,42.549 h 57.3 c 0.107,0 0.162,-0.055 0.162,-0.162 V 21.153 c 0,-0.109 -0.055,-0.163 -0.162,-0.163 H 0 c -0.108,0 -0.161,0.054 -0.161,0.163 v 21.234 c 0,0.107 0.053,0.162 0.161,0.162"/></g><g id="g83" transform="translate(265.9931,170.7451)"><path style="fill:#2e58a6;fill-opacity:1;fill-rule:nonzero;stroke:none" id="path85" d="m 0,0 h 54.139 c 0.053,0 0.081,-0.054 0.081,-0.162 V -20.91 c 0,-0.109 -0.028,-0.162 -0.081,-0.162 H 0 c -0.108,0 -0.162,0.053 -0.162,0.162 V -0.162 C -0.162,-0.054 -0.108,0 0,0 m 0,95.229 h 21.801 c 0.108,0 0.163,-0.054 0.163,-0.162 V 24.719 c 0,-0.11 -0.055,-0.161 -0.163,-0.161 L 0,24.558 c -0.108,0 -0.162,0.051 -0.162,0.161 v 70.348 c 0,0.108 0.054,0.162 0.162,0.162"/></g><g id="g87" transform="translate(343.164,223.3437)"><path style="fill:#2e58a6;fill-opacity:1;fill-rule:nonzero;stroke:none" id="path89" d="m 0,0 h 63.216 c 0.107,0 0.162,-0.054 0.162,-0.162 v -20.991 c 0,-0.109 -0.055,-0.161 -0.162,-0.161 H 21.883 v -30.555 h 41.333 c 0.107,-0.055 0.162,-0.11 0.162,-0.162 v -21.478 c 0,-0.108 -0.055,-0.162 -0.162,-0.162 H 0 c -0.108,0 -0.162,0.054 -0.162,0.162 V -0.162 C -0.162,-0.054 -0.108,0 0,0 m 0,42.712 h 63.216 c 0.107,0 0.162,-0.056 0.162,-0.163 V 21.233 c 0,-0.108 -0.055,-0.161 -0.162,-0.161 L 0,21.072 c -0.108,0 -0.162,0.053 -0.162,0.161 v 21.316 c 0,0.107 0.054,0.163 0.162,0.163"/></g><g id="g91" transform="translate(502.9414,265.8125)"><path style="fill:#2e58a6;fill-opacity:1;fill-rule:nonzero;stroke:none" id="path93" d="M 0,0 H 24.558 C 24.665,0 24.72,-0.056 24.72,-0.163 24.395,-0.596 20.721,-6.16 13.697,-16.858 l -0.162,-0.08 h -24.719 v 0.08 C -5.295,-7.781 -1.566,-2.162 0,0 m -73.751,0 h 24.72 c 0.268,-0.271 6.779,-10.187 19.531,-29.745 2.484,-3.782 4.134,-6.268 4.944,-7.456 H 0.243 v -0.081 l -12.399,-18.964 39.145,-59.732 v -0.162 H 2.188 c -17.721,26.854 -26.636,40.443 -26.744,40.767 h -0.163 c -0.702,-1.135 -9.562,-14.724 -26.582,-40.767 h -24.801 c -0.108,0 -0.162,0.054 -0.162,0.162 0.864,1.188 13.94,21.099 39.227,59.732 C -60.649,-20.209 -72.888,-1.459 -73.751,0"/></g><g id="g95" transform="translate(679.6523,266.0557)"><path style="fill:#2e58a6;fill-opacity:1;fill-rule:nonzero;stroke:none" id="path97" d="m 0,0 h 22.449 c 0.108,0 0.163,-0.056 0.163,-0.163 -20.965,-58.191 -31.663,-87.881 -32.094,-89.069 -6.269,-17.453 -9.538,-26.502 -9.807,-27.151 h -21.234 c -0.163,0 -1.406,3.458 -3.728,10.374 -14.913,41.873 -22.504,63.27 -22.773,64.189 h 22.692 c 0.162,-0.216 1.594,-4.243 4.295,-12.076 l 10.212,-28.61 h 0.081 c 1.242,3.458 11.075,30.852 29.501,82.181 C -0.243,-0.109 -0.162,0 0,0 m -81.694,0 h 22.53 c 0.108,-0.056 1,-2.46 2.675,-7.214 l 5.025,-14.345 -0.162,-0.081 h -22.45 c -0.161,0 -0.621,1.216 -1.377,3.647 l -6.403,17.911 z"/></g><g id="g99" transform="translate(824.9199,178.7734)"><path style="fill:#2e58a6;fill-opacity:1;fill-rule:nonzero;stroke:none" id="path101" d="m 0,0 c -0.138,-0.771 -0.381,-1.579 -0.758,-2.437 -2.594,-4.43 -6.564,-6.645 -11.914,-6.645 -6.862,0 -12.94,4.862 -18.235,14.588 -0.272,-0.054 -6.16,-3.594 -17.668,-10.616 7.78,-15.994 19.558,-23.991 35.336,-23.991 7.294,0 13.641,1.541 19.046,4.621 9.329,5.9 14.301,14.061 14.922,24.48 z"/></g><g id="g103" transform="translate(804.0624,203.9736)"><path style="fill:#2e58a6;fill-opacity:1;fill-rule:nonzero;stroke:none" id="path105" d="m 0,0 c 4.03,-3.267 7.184,-5.88 9.472,-7.851 h 28.336 c -1.007,1.835 -2.204,3.616 -3.607,5.338 -1.892,2.486 -4.998,5.646 -9.32,9.483 -8.862,7.295 -16.237,13.697 -22.126,19.208 -3.079,2.701 -4.619,5.376 -4.619,8.024 v 0.323 c 0,0.811 0.162,1.567 0.486,2.27 1.783,3.187 4.728,4.781 8.834,4.781 4.43,0 8.86,-2.378 13.292,-7.131 l 3.403,-4.215 c 10.32,9.078 15.506,13.642 15.562,13.698 -1.622,1.944 -3.648,4.105 -6.079,6.483 C 25.907,57.975 17.289,61.757 7.78,61.757 1.404,61.757 -4.269,60.188 -9.239,57.056 -18.102,51.005 -22.53,43.386 -22.53,34.202 v -0.729 c 0,-7.349 3.511,-14.725 10.535,-22.126 C -7.187,6.483 -3.188,2.701 0,0"/></g><path style="fill:#2e58a6;fill-opacity:1;fill-rule:nonzero;stroke:none" id="path107" d="m 553.435,149.673 h 20.513 v 116.383 h -20.513 z"/><path style="fill:#2e58a6;fill-opacity:1;fill-rule:nonzero;stroke:none" id="path109" d="M 726.937,149.673 H 747.45 V 266.056 H 726.937 Z"/></g></g></g></svg>