<?xml version="1.0" standalone="no"?>
<!DOCTYPE svg PUBLIC "-//W3C//DTD SVG 1.1//EN"
  "http://www.w3.org/Graphics/SVG/1.1/DTD/svg11.dtd">
<svg xmlns="http://www.w3.org/2000/svg" version="1.1" class="railroad-diagram" width="289" height="141" viewBox="0 0 289 141">
<defs><style type="text/css"><![CDATA[ svg.railroad-diagram {
  background-color: hsl(30,20%,95%);
}
svg.railroad-diagram path {
  stroke-width: 3;
  stroke: black;
  fill: none;
}
svg.railroad-diagram text {
  font: bold 14px monospace;
  text-anchor: middle;
  cursor: pointer;
}
svg.railroad-diagram text.label {
  text-anchor: start;
}
svg.railroad-diagram text.comment {
  font: italic 12px monospace;
}
svg.railroad-diagram rect {
  stroke-width: 3;
  stroke: black;
  fill: hsl(120,100%,90%);
}
 ]]></style></defs>
<g transform="translate(.5 .5)">
<path d="M 20 21 v 20 m 10 -20 v 20 m -10 -10 h 20.5"></path>
<g>
<path d="M40 31h0"></path>
<path d="M248 31h0"></path>
<path d="M40 31h20"></path>
<g>
<path d="M60 31h6"></path>
<path d="M222 31h6"></path>
<rect x="66" y="20" width="156" height="22"></rect>
<text x="144" y="35">ConfigurationList</text>
</g>
<path d="M228 31h20"></path>
<path d="M40 31a10 10 0 0 1 10 10v20a10 10 0 0 0 10 10"></path>
<g>
<path d="M60 71h0"></path>
<path d="M228 71h0"></path>
<path d="M60 71h10"></path>
<g>
<path d="M70 71h0"></path>
<path d="M218 71h0"></path>
<path d="M70 71h10"></path>
<g>
<path d="M80 71h0"></path>
<path d="M208 71h0"></path>
<g>
<path d="M80 71h0"></path>
<path d="M208 71h0"></path>
<path d="M80 71a10 10 0 0 0 10 -10v0a10 10 0 0 1 10 -10"></path>
<g>
<path d="M100 51h88"></path>
</g>
<path d="M188 51a10 10 0 0 1 10 10v0a10 10 0 0 0 10 10"></path>
<path d="M80 71h20"></path>
<g>
<path d="M100 71h0"></path>
<path d="M188 71h0"></path>
<path d="M100 71h10"></path>
<g>
<path d="M110 71h0"></path>
<path d="M178 71h0"></path>
<rect x="110" y="60" width="68" height="22" rx="10" ry="10"></rect>
<text x="144" y="75">&#91;^;),&#93;</text>
</g>
<path d="M178 71h10"></path>
<path d="M110 71a10 10 0 0 0 -10 10v0a10 10 0 0 0 10 10"></path>
<g>
<path d="M110 91h68"></path>
</g>
<path d="M178 91a10 10 0 0 0 10 -10v0a10 10 0 0 0 -10 -10"></path>
</g>
<path d="M188 71h20"></path>
</g>
</g>
<path d="M208 71h10"></path>
<path d="M80 71a10 10 0 0 0 -10 10v19a10 10 0 0 0 10 10"></path>
<g>
<path d="M80 110h40"></path>
<path d="M168 110h40"></path>
<path d="M120 110h10"></path>
<g>
<path d="M130 110h0"></path>
<path d="M158 110h0"></path>
<rect x="130" y="99" width="28" height="22" rx="10" ry="10"></rect>
<text x="144" y="114">,</text>
</g>
<path d="M158 110h10"></path>
</g>
<path d="M208 110a10 10 0 0 0 10 -10v-19a10 10 0 0 0 -10 -10"></path>
</g>
<path d="M218 71h10"></path>
</g>
<path d="M228 71a10 10 0 0 0 10 -10v-20a10 10 0 0 1 10 -10"></path>
</g>
<path d="M 248 31 h 20 m -10 -10 v 20 m 10 -20 v 20"></path>
</g>
</svg>
