<svg xmlns="http://www.w3.org/2000/svg" width="425" height="102" class="railroad-diagram" version="1.1" viewBox="0 0 425 102"><defs><style type="text/css">svg.railroad-diagram{background-color:#f5f2f0}svg.railroad-diagram path,svg.railroad-diagram rect{stroke-width:3;stroke:#000;fill:none}svg.railroad-diagram rect{fill:#cfc}svg.railroad-diagram text{font:700 14px monospace;text-anchor:middle;cursor:pointer}</style></defs><g><path d="M 20 31 v 20 m 10 -20 v 20 m -10 -10 h 20.5" transform="translate(.5 .5)"/><g><path d="M40 41h0" transform="translate(.5 .5)"/><path d="M384 41h0" transform="translate(.5 .5)"/><g><path d="M40 41h0" transform="translate(.5 .5)"/><path d="M236 41h0" transform="translate(.5 .5)"/><path d="M40 41a10 10 0 0 0 10 -10v0a10 10 0 0 1 10 -10" transform="translate(.5 .5)"/><g><path d="M60 21h156" transform="translate(.5 .5)"/></g><path d="M216 21a10 10 0 0 1 10 10v0a10 10 0 0 0 10 10" transform="translate(.5 .5)"/><path d="M40 41h20" transform="translate(.5 .5)"/><g transform="translate(.5 .5)"><path d="M60 41h0"/><path d="M216 41h0"/><rect width="156" height="22" x="60" y="30"/><text x="138" y="45">ConfigurationList</text></g><path d="M216 41h20" transform="translate(.5 .5)"/></g><g><path d="M236 41h0" transform="translate(.5 .5)"/><path d="M384 41h0" transform="translate(.5 .5)"/><path d="M236 41h20" transform="translate(.5 .5)"/><g transform="translate(.5 .5)"><path d="M256 41h4"/><path d="M360 41h4"/><rect width="100" height="22" x="260" y="30"/><text x="310" y="45">InlineView</text></g><path d="M364 41h20" transform="translate(.5 .5)"/><path d="M236 41a10 10 0 0 1 10 10v10a10 10 0 0 0 10 10" transform="translate(.5 .5)"/><g transform="translate(.5 .5)"><path d="M256 71h0"/><path d="M364 71h0"/><rect width="108" height="22" x="256" y="60"/><text x="310" y="75">RegularView</text></g><path d="M364 71a10 10 0 0 0 10 -10v-10a10 10 0 0 1 10 -10" transform="translate(.5 .5)"/></g></g><path d="M 384 41 h 20 m -10 -10 v 20 m 10 -20 v 20" transform="translate(.5 .5)"/></g></svg>