<?xml version="1.0" standalone="no"?>
<!DOCTYPE svg PUBLIC "-//W3C//DTD SVG 1.1//EN"
  "http://www.w3.org/Graphics/SVG/1.1/DTD/svg11.dtd">
<svg xmlns="http://www.w3.org/2000/svg" version="1.1" class="railroad-diagram" width="425" height="102" viewBox="0 0 425 102">
<defs><style type="text/css"><![CDATA[ svg.railroad-diagram {
  background-color: hsl(30,20%,95%);
}
svg.railroad-diagram path {
  stroke-width: 3;
  stroke: black;
  fill: none;
}
svg.railroad-diagram text {
  font: bold 14px monospace;
  text-anchor: middle;
  cursor: pointer;
}
svg.railroad-diagram text.label {
  text-anchor: start;
}
svg.railroad-diagram text.comment {
  font: italic 12px monospace;
}
svg.railroad-diagram rect {
  stroke-width: 3;
  stroke: black;
  fill: hsl(120,100%,90%);
}
 ]]></style></defs>
<g transform="translate(.5 .5)">
<path d="M 20 31 v 20 m 10 -20 v 20 m -10 -10 h 20.5"></path>
<g>
<path d="M40 41h0"></path>
<path d="M384 41h0"></path>
<g>
<path d="M40 41h0"></path>
<path d="M236 41h0"></path>
<path d="M40 41a10 10 0 0 0 10 -10v0a10 10 0 0 1 10 -10"></path>
<g>
<path d="M60 21h156"></path>
</g>
<path d="M216 21a10 10 0 0 1 10 10v0a10 10 0 0 0 10 10"></path>
<path d="M40 41h20"></path>
<g>
<path d="M60 41h0"></path>
<path d="M216 41h0"></path>
<rect x="60" y="30" width="156" height="22"></rect>
<text x="138" y="45">ConfigurationList</text>
</g>
<path d="M216 41h20"></path>
</g>
<g>
<path d="M236 41h0"></path>
<path d="M384 41h0"></path>
<path d="M236 41h20"></path>
<g>
<path d="M256 41h4"></path>
<path d="M360 41h4"></path>
<rect x="260" y="30" width="100" height="22"></rect>
<text x="310" y="45">InlineView</text>
</g>
<path d="M364 41h20"></path>
<path d="M236 41a10 10 0 0 1 10 10v10a10 10 0 0 0 10 10"></path>
<g>
<path d="M256 71h0"></path>
<path d="M364 71h0"></path>
<rect x="256" y="60" width="108" height="22"></rect>
<text x="310" y="75">RegularView</text>
</g>
<path d="M364 71a10 10 0 0 0 10 -10v-10a10 10 0 0 1 10 -10"></path>
</g>
</g>
<path d="M 384 41 h 20 m -10 -10 v 20 m 10 -20 v 20"></path>
</g>
</svg>
